<svg width="741" height="306" viewBox="0 0 741 306" fill="none" xmlns="http://www.w3.org/2000/svg">
<g clip-path="url(#clip0_1191_406)">
<path d="M466.844 160.398C511.589 160.398 531.675 130.469 531.675 98.1413C531.675 65.8134 511.573 35.918 466.844 35.918C422.115 35.918 402.062 65.8134 402.062 98.1413C402.062 130.469 422.165 160.398 466.844 160.398ZM460.215 48.8357C483.615 45.9502 495.017 63.9344 498.762 94.1318C502.508 124.329 495.713 144.612 473.473 147.497C450.073 150.383 438.671 132.399 434.909 102.201C431.147 72.0038 437.991 51.7045 460.231 48.8357H460.215Z" fill="#F2AD0C"/>
<path d="M168.889 207.104C168.889 196.333 162.028 186.032 143.815 186.032C122.768 186.032 111.648 198.48 114.962 211.902L141.926 207.104C138.147 202.557 141.926 198.48 147.842 198.48C153.758 198.48 156.592 201.601 156.592 205.678C156.592 227.487 53.6945 208.781 53.6945 254.765C53.6945 265.535 60.5554 275.819 78.7684 275.819C99.8153 275.819 110.935 263.371 107.621 249.967L80.6577 254.765C84.4528 259.311 80.6577 263.371 74.9899 263.371C68.8416 263.371 65.9911 260.268 65.9911 256.191C65.9911 245.656 89.6565 244.699 114.25 241.092C117.682 243.437 120.477 246.616 122.379 250.339C124.282 254.062 125.23 258.208 125.138 262.398C125.138 282.278 106.444 293.535 77.5918 293.535C42.5744 293.535 28.3885 276.524 28.3885 254.027C28.3885 230.322 47.3141 218.797 77.1112 214.032V201.584C51.5732 203.983 44.4636 192.005 44.4636 179.07C44.4636 163.972 52.9818 155.583 69.3222 155.583C87.3032 155.583 97.4952 165.867 83.7567 184.791L116.371 189.572C128.684 157.009 98.1415 143.119 67.1844 143.119C37.1387 143.119 11.8327 155.332 11.8327 178.567C11.8327 193.666 22.7041 204.906 38.5639 210.643C17.2684 218.595 0 232 0 255.47C0 286.606 30.5097 306 74.7413 306C113.769 306 137.435 289.71 137.435 263.858C137.455 259.139 136.398 254.478 134.346 250.241C132.293 246.004 129.3 242.304 125.602 239.431C148.306 235.355 168.889 227.705 168.889 207.104Z" fill="#F2AD0C"/>
<path d="M276.759 218.847C290.016 213.093 299.231 202.792 299.231 183.885C299.231 154.627 279.775 147.715 255.96 146.071C263.103 139.747 267.561 130.033 267.561 115.169C267.561 90.9612 254.784 79.0164 238.957 73.2286C252.215 67.4576 261.429 57.1737 261.429 38.2835C261.529 0 228.152 0 195.289 0H126.696V7.63322C135.197 7.63322 138.528 13.3875 138.528 28.7378V129.278C138.528 144.612 135.214 150.383 126.696 150.383V158.016H173.529C175.435 161.371 176.264 166.639 176.264 174.306V274.863C176.264 290.197 172.949 295.934 164.431 295.934V303.651H237.764C267.329 303.651 305.412 303.903 305.412 260.788C305.412 236.546 292.635 224.585 276.759 218.847ZM266.583 185.563C266.583 209.737 254.75 213.093 229.693 213.093H208.895V158.016H229.726C254.784 158.016 266.616 161.371 266.616 185.563H266.583ZM171.159 12.4145H191.974C217.032 12.4145 228.898 15.7697 228.898 39.9612C228.898 64.1526 217.098 67.4911 191.974 67.4911H171.159V12.4145ZM198.139 79.9559C223.197 79.9559 235.029 88.5622 235.029 112.77C235.029 136.626 223.429 145.35 199.084 145.568H171.159V79.9559H198.139ZM235.875 291.153H208.895V225.541H235.875C260.948 225.541 272.765 234.164 272.765 258.355C272.765 282.547 260.948 291.153 235.875 291.153Z" fill="#F2AD0C"/>
<path d="M350.373 274.863V168.87C350.438 165.663 350.036 162.463 349.18 159.375C384.214 153.855 400.14 126.963 400.14 98.1916C400.14 65.8636 380.021 35.9683 335.342 35.9683C290.663 35.9683 270.511 65.8133 270.511 98.1413C270.511 122.232 281.681 144.981 305.877 155.013C308.242 155.981 310.66 156.81 313.119 157.496C316.185 161.036 317.726 167.276 317.726 176.52V274.863C317.726 290.197 314.411 295.934 305.893 295.934V303.651H362.239V295.934C353.671 295.934 350.373 290.23 350.373 274.863ZM328.697 48.8357C352.13 45.9502 363.499 63.9344 367.277 94.1317C371.056 124.329 364.178 144.645 341.955 147.531C318.521 150.416 307.153 132.432 303.407 102.235C299.662 72.0373 306.473 51.7044 328.697 48.8357Z" fill="#F2AD0C"/>
<path d="M477.865 273.907V240.354C477.865 197.491 462.486 181.453 423.938 181.453C381.596 181.453 362.438 203.262 369.531 229.584L400.754 223.36C393.661 204.906 401.234 193.901 420.64 193.901C439.566 193.901 444.057 204.671 445.002 229.332C411.857 233.174 361.742 241.311 361.742 276.037C361.742 296.169 375 305.966 399.859 305.966C420.906 305.966 435.804 297.109 442.947 285.835H445.317V287.513C446.725 301.168 459.022 303.551 467.772 303.551C476.771 303.551 485.753 300.195 489.78 293.971V284.879C482.124 289.475 477.865 287.328 477.865 273.907ZM445.234 254.765V257.634C445.234 273.437 431.512 293.552 411.161 293.552C399.56 293.552 394.373 287.328 394.373 274.628C394.373 255.235 417.309 244.699 445.234 241.579V254.765Z" fill="#F2AD0C"/>
<path d="M620.27 274.863L620.071 169.525C620.071 149.896 610.011 147.984 591.202 147.984H579.85C570.387 147.984 570.138 136.24 570.138 117.3V50.7316H594.483C605.868 50.7316 605.868 45.9503 605.868 38.3171H570.089V0H549.324C549.324 30.6503 538.684 35.9181 520.454 38.3171V50.7316H537.491V121.645C537.491 151.691 556.251 159.543 574.447 160.331C574.447 160.331 586.81 160.449 587.39 175.162C587.39 175.833 587.39 176.487 587.39 177.191L587.589 206.382H585.236C576.718 190.579 560.145 181.486 541.037 181.486C510.76 181.486 485.454 203.044 485.454 243.743C485.454 284.442 510.76 306 541.037 306C560.195 306 576.751 296.89 585.269 281.087H587.622V285.65C587.622 302.427 598.742 303.601 616.491 303.601H641.449V295.934C638.367 295.934 620.27 290.666 620.27 274.863ZM552.157 293.586C529.917 293.586 520.454 273.706 520.454 243.777C520.454 213.848 529.917 193.968 552.157 193.968C574.397 193.968 585.302 213.848 585.302 243.777C585.302 273.706 574.381 293.586 552.157 293.586Z" fill="#F2AD0C"/>
<path d="M707.64 264.814C710.722 286.875 702.204 293.586 687.538 293.586C666.491 293.586 657.028 273.454 656.796 249.279C688.499 257.416 741 253.356 741 216.717C741 194.203 720.185 181.486 690.852 181.486C651.079 181.486 624.148 206.148 624.148 246.914C624.148 280.467 642.61 306.067 688.499 306.067C723.98 306.067 742.657 284.258 740.288 258.657L707.64 264.814ZM687.753 193.934C701.475 193.934 708.336 201.836 708.336 215.962C708.336 235.842 690.819 244.481 657.243 236.328C659.166 210.224 667.684 193.934 687.753 193.934Z" fill="#F2AD0C"/>
</g>
<defs>
<clipPath id="clip0_1191_406">
<rect width="741" height="306" fill="white"/>
</clipPath>
</defs>
</svg>
